<?xml version="1.0"?>
<svg width="1022.7" height="785.81" xmlns="http://www.w3.org/2000/svg" xmlns:svg="http://www.w3.org/2000/svg">
 <defs>
  <linearGradient id="af83dc26-9572-4816-b7a1-1af4f72ff554-43" x1="0.53" x2="0.45" y1="1" y2="0">
   <stop offset="0" stop-color="gray" stop-opacity="0.25"/>
   <stop offset="0.54" stop-color="gray" stop-opacity="0.12"/>
   <stop offset="1" stop-color="gray" stop-opacity="0.1"/>
  </linearGradient>
 </defs>
 <title>bug fixing</title>
 <g class="layer">
  <title>Layer 1</title>
  <ellipse cx="468.63" cy="660.88" fill="#63d72a" id="svg_1" opacity="0.1" rx="425" ry="33"/>
  <g id="svg_2" opacity="0.1" transform="matrix(1 0 0 1 0 0)">
   <path d="m933.7,529.93c-2.54,-7.71 -12.84,-11.26 -23,-7.92a24.76,24.76 0 0 0 -4.23,1.83c-0.65,-0.18 -1.32,-0.34 -2,-0.46a22.42,22.42 0 0 0 0.63,-6.79a24.6,24.6 0 0 0 10.9,-21.47a24.63,24.63 0 0 0 10.86,-21.47a23.76,23.76 0 0 0 8.23,-9.32c4.9,-9.7 2.87,-20.6 -4.54,-24.35s-17.4,1.08 -22.3,10.78a23.69,23.69 0 0 0 -2.63,12.15a24.63,24.63 0 0 0 -10.86,21.47a24.63,24.63 0 0 0 -10.86,21.47a24.64,24.64 0 0 0 -10.9,21.48a23.76,23.76 0 0 0 -8.23,9.32a25.46,25.46 0 0 0 -2.08,5.74a21.18,21.18 0 0 0 -4.44,-4.73a25.38,25.38 0 0 0 -1,-4.5c-3.34,-10.17 -12.3,-16.37 -20,-13.83s-11.26,12.83 -7.92,23a23.07,23.07 0 0 0 7.56,11.08a25.38,25.38 0 0 0 1,4.5c1.94,5.9 5.77,10.46 10.15,12.75a23.23,23.23 0 0 0 -0.83,3.9a25.29,25.29 0 0 0 -7.54,14.91a25.27,25.27 0 0 0 -7.54,14.92a24.63,24.63 0 0 0 -5,6.81c-4.91,9.7 -2.88,20.61 4.53,24.35s17.4,-1.07 22.31,-10.78a24.62,24.62 0 0 0 2.5,-8.09a25.29,25.29 0 0 0 7.54,-14.91a25.27,25.27 0 0 0 7.54,-14.92a25.21,25.21 0 0 0 7.45,-14.91a25.21,25.21 0 0 0 7.56,-14.94a24.11,24.11 0 0 0 3.39,-4a23.46,23.46 0 0 0 12.27,-0.77a24.76,24.76 0 0 0 4.23,-1.83a23.2,23.2 0 0 0 13.42,-0.48c10.13,-3.31 16.36,-12.27 13.83,-19.99z" fill="#63d72a" id="svg_3" transform="translate(-88.65 -57.09)"/>
   <g id="svg_4" opacity="0.1">
    <path d="m915.77,499.53a21.5,21.5 0 0 1 -3.44,2.75a23,23 0 0 1 -1.11,8.43a26.18,26.18 0 0 0 2.1,-3.43a24.64,24.64 0 0 0 2.45,-7.75z" fill="#63d72a" id="svg_5" transform="translate(-88.65 -57.09)"/>
    <path d="m926.63,478.06a21.5,21.5 0 0 1 -3.44,2.75a23,23 0 0 1 -1.11,8.43a25.65,25.65 0 0 0 2.1,-3.44a24.85,24.85 0 0 0 2.45,-7.74z" fill="#63d72a" id="svg_6" transform="translate(-88.65 -57.09)"/>
    <path d="m902,470.07a21.91,21.91 0 0 1 0.17,-4.41a24.93,24.93 0 0 0 -4.78,6.57a25.63,25.63 0 0 0 -1.52,3.73a22.75,22.75 0 0 1 6.13,-5.89z" fill="#63d72a" id="svg_7" transform="translate(-88.65 -57.09)"/>
    <path d="m833.07,600a23.59,23.59 0 0 1 2.95,-3.38a22.92,22.92 0 0 1 0.87,-4a25.09,25.09 0 0 0 -2.29,3.71a25.59,25.59 0 0 0 -1.53,3.67z" fill="#63d72a" id="svg_8" transform="translate(-88.65 -57.09)"/>
    <path d="m840.61,585.1a23.59,23.59 0 0 1 2.95,-3.38a23,23 0 0 1 0.83,-3.9l0,0a25.68,25.68 0 0 0 -2.2,3.59a26.76,26.76 0 0 0 -1.58,3.69z" fill="#63d72a" id="svg_9" transform="translate(-88.65 -57.09)"/>
    <path d="m904.9,521a20.82,20.82 0 0 1 -3.43,2.74a22.45,22.45 0 0 1 -0.63,6.79a18.75,18.75 0 0 1 2,0.46a24.76,24.76 0 0 1 4.23,-1.83c10.18,-3.34 20.47,0.21 23,7.92a11.68,11.68 0 0 1 0.32,6c3.35,-3.94 4.74,-8.74 3.3,-13.14c-2.54,-7.71 -12.84,-11.26 -23,-7.92a24.76,24.76 0 0 0 -4.23,1.83c-0.65,-0.18 -1.32,-0.34 -2,-0.46c0.19,-0.8 0.33,-1.59 0.44,-2.39z" fill="#63d72a" id="svg_10" transform="translate(-88.65 -57.09)"/>
    <path d="m829.35,607.49a25.09,25.09 0 0 0 -2.29,3.71a26.56,26.56 0 0 0 -1.54,3.74a24.48,24.48 0 0 1 3,-3.4a22.92,22.92 0 0 1 0.83,-4.05z" fill="#63d72a" id="svg_11" transform="translate(-88.65 -57.09)"/>
    <path d="m891.09,491.54a22,22 0 0 1 0.17,-4.41a24.93,24.93 0 0 0 -4.78,6.57a25.63,25.63 0 0 0 -1.52,3.73a22.75,22.75 0 0 1 6.13,-5.89z" fill="#63d72a" id="svg_12" transform="translate(-88.65 -57.09)"/>
    <path d="m875.4,579.1a24.29,24.29 0 0 1 -1,4.38a26.67,26.67 0 0 0 2.09,-3.44a25.49,25.49 0 0 0 1.63,-4a24.23,24.23 0 0 1 -2.72,3.06z" fill="#63d72a" id="svg_13" transform="translate(-88.65 -57.09)"/>
    <path d="m860.32,608.92a24.15,24.15 0 0 1 -1,4.38a25.65,25.65 0 0 0 2.1,-3.44a26.47,26.47 0 0 0 1.63,-4a23.57,23.57 0 0 1 -2.73,3.06z" fill="#63d72a" id="svg_14" transform="translate(-88.65 -57.09)"/>
    <path d="m867.86,594a24.11,24.11 0 0 1 -1,4.38a26.67,26.67 0 0 0 2.14,-3.38a25.49,25.49 0 0 0 1.63,-4a24.23,24.23 0 0 1 -2.77,3z" fill="#63d72a" id="svg_15" transform="translate(-88.65 -57.09)"/>
    <path d="m882.94,564.19a24,24 0 0 1 -1,4.37a25.89,25.89 0 0 0 2.09,-3.43a25.48,25.48 0 0 0 1.64,-4.07a23.22,23.22 0 0 1 -2.73,3.13z" fill="#63d72a" id="svg_16" transform="translate(-88.65 -57.09)"/>
    <path d="m833.57,526.48c7.72,-2.53 16.68,3.66 20,13.83a25.68,25.68 0 0 1 1,4.51a21.18,21.18 0 0 1 4.44,4.73a25.53,25.53 0 0 1 2.08,-5.75c0.35,-0.68 0.73,-1.33 1.12,-2a21.07,21.07 0 0 0 -4,-4.18a25.38,25.38 0 0 0 -1,-4.5c-3.34,-10.17 -12.3,-16.37 -20,-13.83c-4.4,1.44 -7.44,5.41 -8.62,10.43a11.69,11.69 0 0 1 4.98,-3.24z" fill="#63d72a" id="svg_17" transform="translate(-88.65 -57.09)"/>
    <path d="m869.37,534.48a21.85,21.85 0 0 1 0.18,-4.4a24.73,24.73 0 0 0 -4.79,6.57a25.07,25.07 0 0 0 -1.52,3.72a23,23 0 0 1 6.13,-5.89z" fill="#63d72a" id="svg_18" transform="translate(-88.65 -57.09)"/>
    <path d="m880.23,513a21.85,21.85 0 0 1 0.18,-4.4a24.52,24.52 0 0 0 -4.79,6.56a25.63,25.63 0 0 0 -1.52,3.73a22.75,22.75 0 0 1 6.13,-5.89z" fill="#63d72a" id="svg_19" transform="translate(-88.65 -57.09)"/>
    <path d="m852.78,623.83a24.25,24.25 0 0 1 -1,4.39a25.73,25.73 0 0 0 3.73,-7.49a23.57,23.57 0 0 1 -2.73,3.1z" fill="#63d72a" id="svg_20" transform="translate(-88.65 -57.09)"/>
   </g>
   <path d="m948.52,430.71a23.68,23.68 0 0 0 8.23,-9.32c4.91,-9.7 2.88,-20.61 -4.53,-24.36s-17.4,1.08 -22.31,10.79a23.68,23.68 0 0 0 -2.62,12.18a24.63,24.63 0 0 0 -10.86,21.47a23.61,23.61 0 0 0 -8.23,9.32a24.69,24.69 0 0 0 -1.51,3.69a20.85,20.85 0 0 1 10.77,-8a12.24,12.24 0 0 0 15.54,7.84a20.85,20.85 0 0 1 0,13.41a25.48,25.48 0 0 0 2.08,-3.4a23.68,23.68 0 0 0 2.62,-12.15a24.57,24.57 0 0 0 10.86,-21.47l-0.04,0z" fill="#63d72a" id="svg_21" transform="translate(-88.65 -57.09)"/>
   <path d="m1067.88,293.07a72,72 0 0 0 8.72,-4.83l-32.33,-23.62l38,19.57a72.13,72.13 0 0 0 27,-50.31l-64.58,0.66l64.72,-10.82a72,72 0 1 0 -142.58,18.28a72.09,72.09 0 0 0 -13.26,8l33.75,46.93l-40.52,-41.08a72.08,72.08 0 0 0 -20.17,65.61a72,72 0 1 0 101.05,51.1a72,72 0 0 0 40.2,-79.49z" fill="#63d72a" id="svg_22" transform="translate(-88.65 -57.09)"/>
   <path d="m933,274.75a71.77,71.77 0 0 0 -6.35,46.71a72,72 0 1 0 101.05,51.1c14.13,-6.56 -91.08,-105.02 -94.7,-97.81z" fill="#63d72a" id="svg_23" opacity="0.1" transform="translate(-88.65 -57.09)"/>
   <circle cx="925.49" cy="102.72" fill="#63d72a" id="svg_24" r="10.69"/>
   <circle cx="987.93" cy="109.58" fill="#63d72a" id="svg_25" r="10.69"/>
   <circle cx="1012.01" cy="205.64" fill="#63d72a" id="svg_26" r="10.69"/>
   <circle cx="979.51" cy="253.61" fill="#63d72a" id="svg_27" r="10.69"/>
   <circle cx="935.11" cy="353.24" fill="#63d72a" id="svg_28" r="10.69"/>
   <circle cx="935.11" cy="353.24" fill="#63d72a" id="svg_29" opacity="0.1" r="10.69"/>
   <circle cx="836.39" cy="240.4" fill="#63d72a" id="svg_30" r="10.69"/>
   <circle cx="836.39" cy="240.4" fill="#63d72a" id="svg_31" opacity="0.1" r="10.69"/>
   <path d="m913.64,473.32c-7.11,-3.59 -9.26,-13.76 -5.11,-23.14c-0.22,0.38 -0.43,0.77 -0.63,1.18c-4.91,9.7 -2.88,20.6 4.53,24.35s17.4,-1.08 22.3,-10.78c0.21,-0.4 0.39,-0.81 0.57,-1.21c-5.09,8.91 -14.56,13.2 -21.66,9.6z" fill="#63d72a" id="svg_32" opacity="0.1" transform="translate(-88.65 -57.09)"/>
   <path d="m903.08,494.2c-7.1,-3.59 -9.26,-13.76 -5.1,-23.15c-0.22,0.39 -0.44,0.78 -0.64,1.18c-4.91,9.7 -2.88,20.61 4.53,24.35s17.4,-1.07 22.31,-10.78c0.2,-0.4 0.39,-0.8 0.57,-1.21c-5.1,8.91 -14.56,13.2 -21.67,9.61z" fill="#63d72a" id="svg_33" opacity="0.1" transform="translate(-88.65 -57.09)"/>
   <path d="m892.52,515.07c-7.1,-3.59 -9.26,-13.76 -5.1,-23.14c-0.22,0.38 -0.44,0.77 -0.64,1.18c-4.91,9.7 -2.87,20.6 4.54,24.35s17.39,-1.08 22.3,-10.78c0.2,-0.4 0.39,-0.81 0.57,-1.21c-5.09,8.91 -14.56,13.2 -21.67,9.6z" fill="#63d72a" id="svg_34" opacity="0.1" transform="translate(-88.65 -57.09)"/>
   <path d="m882,536c-7.11,-3.59 -9.26,-13.76 -5.11,-23.14c-0.22,0.38 -0.43,0.77 -0.64,1.17c-4.9,9.7 -2.87,20.61 4.54,24.36s17.4,-1.08 22.3,-10.79c0.21,-0.4 0.39,-0.8 0.57,-1.21c-5.12,8.86 -14.59,13.15 -21.66,9.61z" fill="#63d72a" id="svg_35" opacity="0.1" transform="translate(-88.65 -57.09)"/>
   <path d="m871.41,556.82c-7.11,-3.59 -9.26,-13.76 -5.11,-23.14c-0.22,0.38 -0.43,0.77 -0.63,1.18c-4.91,9.7 -2.88,20.6 4.53,24.35s17.4,-1.08 22.31,-10.78c0.2,-0.4 0.39,-0.81 0.57,-1.21c-5.08,8.91 -14.57,13.2 -21.67,9.6z" fill="#63d72a" id="svg_36" opacity="0.1" transform="translate(-88.65 -57.09)"/>
   <path d="m860.85,577.7c-7.1,-3.59 -9.26,-13.76 -5.1,-23.14c-0.22,0.38 -0.44,0.77 -0.64,1.17c-4.91,9.7 -2.88,20.61 4.54,24.36s17.35,-1.09 22.35,-10.79c0.2,-0.4 0.39,-0.8 0.57,-1.21c-5.15,8.91 -14.57,13.2 -21.72,9.61z" fill="#63d72a" id="svg_37" opacity="0.1" transform="translate(-88.65 -57.09)"/>
   <path d="m850.29,598.57c-7.1,-3.59 -9.26,-13.76 -5.1,-23.14c-0.22,0.39 -0.43,0.77 -0.64,1.18c-4.9,9.7 -2.87,20.6 4.54,24.35s17.4,-1.08 22.3,-10.78c0.21,-0.4 0.39,-0.81 0.57,-1.21c-5.09,8.91 -14.56,13.2 -21.67,9.6z" fill="#63d72a" id="svg_38" opacity="0.1" transform="translate(-88.65 -57.09)"/>
   <path d="m839.74,619.45c-7.11,-3.59 -9.26,-13.76 -5.11,-23.14q-0.33,0.57 -0.63,1.17c-4.91,9.7 -2.88,20.61 4.53,24.36s17.4,-1.08 22.31,-10.79c0.2,-0.4 0.38,-0.8 0.56,-1.21c-5.09,8.91 -14.56,13.16 -21.66,9.61z" fill="#63d72a" id="svg_39" opacity="0.1" transform="translate(-88.65 -57.09)"/>
   <path d="m832.8,633.17c-7.1,-3.6 -9.26,-13.76 -5.1,-23.15c-0.22,0.39 -0.44,0.78 -0.64,1.18c-4.91,9.7 -2.88,20.61 4.53,24.35s17.4,-1.07 22.31,-10.78c0.2,-0.4 0.39,-0.8 0.57,-1.21c-5.1,8.91 -14.57,13.2 -21.67,9.61z" fill="#63d72a" id="svg_40" opacity="0.1" transform="translate(-88.65 -57.09)"/>
   <path d="m1023.59,540.26a37.4,37.4 0 0 0 2,-9.79a5.34,5.34 0 1 0 -0.81,-10.62a37.31,37.31 0 0 0 -19.64,-25.31a5.34,5.34 0 1 0 -9.54,-4.82a5,5 0 0 0 -0.48,1.43a37.49,37.49 0 0 0 -32.87,9.85a37.64,37.64 0 0 0 -9.82,-0.29l-4.33,19.71l-0.26,-19a37.42,37.42 0 1 0 20,72a5.28,5.28 0 0 0 2.25,2.16a5.34,5.34 0 0 0 7.32,-6.88a37.35,37.35 0 0 0 4.8,-3.92a37.45,37.45 0 0 0 39.31,-19.83l-20.15,-3.39l22.22,-1.3z" fill="#63d72a" id="svg_41" transform="translate(-88.65 -57.09)"/>
   <g id="svg_42" opacity="0.1">
    <path d="m992.46,549.83c-7.44,-9.82 -12,-21.45 -17.25,-32.61a136.38,136.38 0 0 0 -7.07,-13.36l-3.94,-4.59c-0.66,0.56 -1.32,1.14 -2,1.75a37.64,37.64 0 0 0 -9.82,-0.29l-4.33,19.71l-0.26,-19a37.42,37.42 0 1 0 20,72a5.28,5.28 0 0 0 2.25,2.16a5.34,5.34 0 0 0 7.32,-6.88a37.35,37.35 0 0 0 4.8,-3.92a37.49,37.49 0 0 0 22.44,-3.32a52.71,52.71 0 0 1 -12.14,-11.65z" fill="#63d72a" id="svg_43" transform="translate(-88.65 -57.09)"/>
   </g>
   <path d="m860.71,507.63a5.34,5.34 0 0 0 -4.78,-7.75a37.37,37.37 0 0 0 -11.7,-20.83a37.52,37.52 0 0 0 1.1,-11.7l-19.65,-3.35l19.08,-1.2a38,38 0 0 0 -1.41,-5.28a5.46,5.46 0 0 0 1.76,-2a5.35,5.35 0 0 0 -6.59,-7.44a37.42,37.42 0 0 0 -66.79,30.92a5.25,5.25 0 0 0 -2.66,2.5a5.34,5.34 0 0 0 6.75,7.37a37.53,37.53 0 0 0 7.09,8.65a37.4,37.4 0 0 0 1.74,23.76l26.35,-6.84l-23.5,12.36a37.42,37.42 0 0 0 68.91,-16.26a5.33,5.33 0 0 0 4.3,-2.91z" fill="#63d72a" id="svg_44" transform="translate(-88.65 -57.09)"/>
   <path d="m860.71,507.63a5.34,5.34 0 0 0 -4.78,-7.75a37.37,37.37 0 0 0 -11.7,-20.83c0.16,-0.63 0.3,-1.25 0.42,-1.88a13.18,13.18 0 0 0 -1.93,1.71c-3.55,3.89 -5.37,9.12 -8.88,13.05c-4.14,4.64 -10.34,7.06 -16.53,7.71s-12.42,-0.3 -18.53,-1.49c-5.06,-1 -10.19,-2.16 -15.32,-1.67c-0.5,0 -1,0.11 -1.46,0.19c0.3,0.29 0.6,0.58 0.91,0.86a37.4,37.4 0 0 0 1.74,23.76l26.35,-6.85l-23.5,12.36a37.42,37.42 0 0 0 68.91,-16.26a5.33,5.33 0 0 0 4.3,-2.91z" fill="#63d72a" id="svg_45" opacity="0.1" transform="translate(-88.65 -57.09)"/>
  </g>
  <g id="svg_46" opacity="0.1" transform="matrix(1 0 0 1 0 0)">
   <path d="m178.14,568.33c1.28,-3.89 6.47,-5.68 11.59,-4a12.78,12.78 0 0 1 2.13,0.92c0.33,-0.09 0.67,-0.17 1,-0.23a11.26,11.26 0 0 1 -0.32,-3.42a12.46,12.46 0 0 1 -5.47,-10.82a11.92,11.92 0 0 1 -4.14,-4.69a12,12 0 0 1 -1.33,-6.12a12,12 0 0 1 -4.14,-4.7c-2.46,-4.88 -1.46,-10.37 2.29,-12.27s8.77,0.55 11.24,5.43a12,12 0 0 1 1.32,6.13a12.37,12.37 0 0 1 5.47,10.81a12.4,12.4 0 0 1 5.47,10.82a12.37,12.37 0 0 1 5.47,10.81a12,12 0 0 1 4.15,4.7a12.66,12.66 0 0 1 1,2.9a10.66,10.66 0 0 1 2.23,-2.39a12.58,12.58 0 0 1 0.52,-2.27c1.69,-5.12 6.2,-8.24 10.09,-7s5.67,6.47 4,11.59a11.67,11.67 0 0 1 -3.81,5.59a12.67,12.67 0 0 1 -0.52,2.26a11.1,11.1 0 0 1 -5.11,6.42a12.84,12.84 0 0 1 0.42,2a12.57,12.57 0 0 1 2.53,3.43a12.32,12.32 0 0 1 1.26,4.08a12.55,12.55 0 0 1 2.54,3.43a12.39,12.39 0 0 1 1.26,4.08a12.45,12.45 0 0 1 2.54,3.44c2.47,4.88 1.45,10.38 -2.28,12.26s-8.77,-0.54 -11.24,-5.43a12.48,12.48 0 0 1 -1.26,-4.08a12.7,12.7 0 0 1 -3.8,-7.51a12.7,12.7 0 0 1 -3.8,-7.51a12.6,12.6 0 0 1 -2.54,-3.43a12.73,12.73 0 0 1 -1.26,-4.08a12.57,12.57 0 0 1 -2.53,-3.43a12.32,12.32 0 0 1 -1.26,-4.08a11.63,11.63 0 0 1 -1.71,-2a11.9,11.9 0 0 1 -6.18,-0.38a13.29,13.29 0 0 1 -2.14,-0.93a11.61,11.61 0 0 1 -6.75,-0.24c-5.07,-1.69 -8.2,-6.2 -6.93,-10.09z" fill="#63d72a" id="svg_47" transform="translate(-88.65 -57.09)"/>
   <g id="svg_48" opacity="0.1">
    <path d="m187.17,553a10.72,10.72 0 0 0 1.74,1.39a11.31,11.31 0 0 0 0.56,4.24a11.93,11.93 0 0 1 -1.06,-1.73a12.46,12.46 0 0 1 -1.24,-3.9z" fill="#63d72a" id="svg_49" transform="translate(-88.65 -57.09)"/>
    <path d="m181.7,542.2a11.21,11.21 0 0 0 1.74,1.38a11.39,11.39 0 0 0 0.56,4.25a12.7,12.7 0 0 1 -2.3,-5.63z" fill="#63d72a" id="svg_50" transform="translate(-88.65 -57.09)"/>
    <path d="m194.13,538.17a11.11,11.11 0 0 0 -0.08,-2.22a12.66,12.66 0 0 1 2.41,3.31a13,13 0 0 1 0.76,1.88a11.42,11.42 0 0 0 -3.09,-2.97z" fill="#63d72a" id="svg_51" transform="translate(-88.65 -57.09)"/>
    <path d="m228.83,603.63a11.65,11.65 0 0 0 -1.48,-1.7a12.4,12.4 0 0 0 -0.44,-2a13.23,13.23 0 0 1 1.15,1.86a13,13 0 0 1 0.77,1.84z" fill="#63d72a" id="svg_52" transform="translate(-88.65 -57.09)"/>
    <path d="m225,596.12a11.65,11.65 0 0 0 -1.48,-1.7a11.75,11.75 0 0 0 -0.42,-2l0,0a12.67,12.67 0 0 1 1.88,3.68l0.02,0.02z" fill="#63d72a" id="svg_53" transform="translate(-88.65 -57.09)"/>
    <path d="m192.65,563.84a10.11,10.11 0 0 0 1.73,1.37a10.9,10.9 0 0 0 0.32,3.42a10,10 0 0 0 -1,0.23a13.26,13.26 0 0 0 -2.14,-0.92c-5.12,-1.68 -10.31,0.11 -11.58,4a5.82,5.82 0 0 0 -0.17,3a6.93,6.93 0 0 1 -1.66,-6.61c1.28,-3.89 6.47,-5.68 11.59,-4a12.78,12.78 0 0 1 2.13,0.92c0.33,-0.09 0.67,-0.17 1,-0.23a10.32,10.32 0 0 1 -0.22,-1.18z" fill="#63d72a" id="svg_54" transform="translate(-88.65 -57.09)"/>
    <path d="m230.71,607.4a12.79,12.79 0 0 1 1.15,1.87a13,13 0 0 1 0.77,1.88a11.74,11.74 0 0 0 -1.48,-1.71a12.4,12.4 0 0 0 -0.44,-2.04z" fill="#63d72a" id="svg_55" transform="translate(-88.65 -57.09)"/>
    <path d="m199.6,549a11.08,11.08 0 0 0 -0.08,-2.22a12.49,12.49 0 0 1 2.41,3.31a12.87,12.87 0 0 1 0.76,1.87a11.38,11.38 0 0 0 -3.09,-2.96z" fill="#63d72a" id="svg_56" transform="translate(-88.65 -57.09)"/>
    <path d="m207.51,593.1a11.94,11.94 0 0 0 0.49,2.2a12.63,12.63 0 0 1 -1.88,-3.77a11.72,11.72 0 0 0 1.39,1.57z" fill="#63d72a" id="svg_57" transform="translate(-88.65 -57.09)"/>
    <path d="m215.1,608.12a12.66,12.66 0 0 0 0.5,2.2a11.93,11.93 0 0 1 -1.06,-1.73a12.88,12.88 0 0 1 -0.82,-2a13,13 0 0 0 1.38,1.53z" fill="#63d72a" id="svg_58" transform="translate(-88.65 -57.09)"/>
    <path d="m211.31,600.61a11.94,11.94 0 0 0 0.49,2.2a12.88,12.88 0 0 1 -1.06,-1.73a12.6,12.6 0 0 1 -0.82,-2a11.72,11.72 0 0 0 1.39,1.53z" fill="#63d72a" id="svg_59" transform="translate(-88.65 -57.09)"/>
    <path d="m203.71,585.58a11.86,11.86 0 0 0 0.49,2.21a12.44,12.44 0 0 1 -1,-1.73a12.23,12.23 0 0 1 -0.83,-2a11.13,11.13 0 0 0 1.34,1.52z" fill="#63d72a" id="svg_60" transform="translate(-88.65 -57.09)"/>
    <path d="m228.58,566.59c-3.89,-1.28 -8.4,1.84 -10.08,7a12.58,12.58 0 0 0 -0.52,2.27a10.63,10.63 0 0 0 -2.24,2.38a12.83,12.83 0 0 0 -1.05,-2.9c-0.17,-0.34 -0.36,-0.67 -0.56,-1a10.63,10.63 0 0 1 2,-2.1a12.58,12.58 0 0 1 0.52,-2.27c1.69,-5.12 6.2,-8.24 10.09,-7a6.93,6.93 0 0 1 4.34,5.26a5.93,5.93 0 0 0 -2.5,-1.64z" fill="#63d72a" id="svg_61" transform="translate(-88.65 -57.09)"/>
    <path d="m210.54,570.62a11.11,11.11 0 0 0 -0.08,-2.22a12.49,12.49 0 0 1 2.41,3.31a13,13 0 0 1 0.76,1.88a11.28,11.28 0 0 0 -3.09,-2.97z" fill="#63d72a" id="svg_62" transform="translate(-88.65 -57.09)"/>
    <path d="m205.07,559.8a11.13,11.13 0 0 0 -0.08,-2.22a12.83,12.83 0 0 1 2.41,3.31a13,13 0 0 1 0.76,1.88a11.42,11.42 0 0 0 -3.09,-2.97z" fill="#63d72a" id="svg_63" transform="translate(-88.65 -57.09)"/>
    <path d="m218.9,615.63a11.9,11.9 0 0 0 0.5,2.21a12.61,12.61 0 0 1 -1.06,-1.74a12.88,12.88 0 0 1 -0.82,-2a13,13 0 0 0 1.38,1.53z" fill="#63d72a" id="svg_64" transform="translate(-88.65 -57.09)"/>
   </g>
   <path d="m170.67,518.34a11.92,11.92 0 0 1 -4.14,-4.69c-2.47,-4.89 -1.45,-10.38 2.28,-12.27s8.77,0.54 11.24,5.43a11.93,11.93 0 0 1 1.32,6.12a12.4,12.4 0 0 1 5.47,10.82a12,12 0 0 1 4.15,4.69a13.23,13.23 0 0 1 0.76,1.86a10.57,10.57 0 0 0 -5.43,-4a6.16,6.16 0 0 1 -7.83,4a10.52,10.52 0 0 0 0,6.75a13.19,13.19 0 0 1 -1,-1.71a12,12 0 0 1 -1.33,-6.12a12.43,12.43 0 0 1 -5.47,-10.82l-0.02,-0.06z" fill="#63d72a" id="svg_65" transform="translate(-88.65 -57.09)"/>
   <path d="m110.55,449a36.81,36.81 0 0 1 -4.39,-2.43l16.28,-11.9l-19.14,9.85a36.34,36.34 0 0 1 -13.59,-25.34l32.54,0.34l-32.61,-5.46a36.29,36.29 0 1 1 71.81,9.2a36.73,36.73 0 0 1 6.68,4l-17,23.64l20.41,-20.68a36.32,36.32 0 0 1 10.16,33.05a36.29,36.29 0 1 1 -50.9,25.74a36.28,36.28 0 0 1 -20.25,-40l0,-0.01z" fill="#63d72a" id="svg_66" transform="translate(-88.65 -57.09)"/>
   <path d="m178.5,439.78a36.12,36.12 0 0 1 3.2,23.53a36.29,36.29 0 1 1 -50.9,25.74c-7.13,-3.31 45.87,-52.9 47.7,-49.27z" fill="#63d72a" id="svg_67" opacity="0.1" transform="translate(-88.65 -57.09)"/>
   <circle cx="48.97" cy="324.78" fill="#63d72a" id="svg_68" r="5.39"/>
   <circle cx="17.51" cy="328.24" fill="#63d72a" id="svg_69" r="5.39"/>
   <circle cx="5.39" cy="376.63" fill="#63d72a" id="svg_70" r="5.39"/>
   <circle cx="21.76" cy="400.8" fill="#63d72a" id="svg_71" r="5.39"/>
   <circle cx="44.12" cy="450.99" fill="#63d72a" id="svg_72" r="5.39"/>
   <circle cx="44.12" cy="450.99" fill="#63d72a" id="svg_73" opacity="0.1" r="5.39"/>
   <circle cx="93.85" cy="394.14" fill="#63d72a" id="svg_74" r="5.39"/>
   <circle cx="93.85" cy="394.14" fill="#63d72a" id="svg_75" opacity="0.1" r="5.39"/>
   <path d="m188.25,539.81c3.58,-1.81 4.66,-6.93 2.57,-11.66c0.11,0.2 0.22,0.39 0.32,0.59c2.47,4.89 1.45,10.38 -2.29,12.27s-8.76,-0.54 -11.23,-5.43c-0.1,-0.2 -0.2,-0.4 -0.29,-0.61c2.57,4.49 7.34,6.65 10.92,4.84z" fill="#63d72a" id="svg_76" opacity="0.1" transform="translate(-88.65 -57.09)"/>
   <path d="m193.56,550.33c3.58,-1.81 4.67,-6.94 2.58,-11.66c0.11,0.19 0.22,0.39 0.32,0.59c2.47,4.89 1.45,10.38 -2.29,12.27s-8.76,-0.54 -11.23,-5.43c-0.11,-0.2 -0.2,-0.41 -0.29,-0.61c2.57,4.51 7.35,6.65 10.91,4.84z" fill="#63d72a" id="svg_77" opacity="0.1" transform="translate(-88.65 -57.09)"/>
   <path d="m198.88,560.84c3.58,-1.81 4.67,-6.93 2.57,-11.66c0.12,0.2 0.22,0.39 0.33,0.6c2.47,4.88 1.44,10.38 -2.29,12.26s-8.76,-0.54 -11.23,-5.43c-0.11,-0.2 -0.2,-0.4 -0.29,-0.61c2.56,4.49 7.33,6.65 10.91,4.84z" fill="#63d72a" id="svg_78" opacity="0.1" transform="translate(-88.65 -57.09)"/>
   <path d="m204.2,571.36c3.58,-1.81 4.67,-6.93 2.57,-11.66c0.11,0.19 0.22,0.39 0.32,0.59c2.48,4.89 1.45,10.38 -2.28,12.27s-8.77,-0.54 -11.24,-5.43c-0.1,-0.2 -0.19,-0.41 -0.28,-0.61c2.56,4.48 7.33,6.65 10.91,4.84z" fill="#63d72a" id="svg_79" opacity="0.1" transform="translate(-88.65 -57.09)"/>
   <path d="m209.52,581.87c3.58,-1.81 4.66,-6.93 2.57,-11.65c0.11,0.19 0.22,0.39 0.32,0.59c2.47,4.89 1.45,10.38 -2.28,12.27s-8.77,-0.55 -11.24,-5.43c-0.1,-0.21 -0.19,-0.41 -0.29,-0.61c2.57,4.48 7.34,6.64 10.92,4.83z" fill="#63d72a" id="svg_80" opacity="0.1" transform="translate(-88.65 -57.09)"/>
   <path d="m214.84,592.39c3.58,-1.81 4.66,-6.93 2.57,-11.66c0.11,0.2 0.22,0.39 0.32,0.59c2.47,4.89 1.45,10.38 -2.28,12.27s-8.77,-0.54 -11.24,-5.43c-0.1,-0.2 -0.2,-0.4 -0.29,-0.61c2.57,4.45 7.34,6.65 10.92,4.84z" fill="#63d72a" id="svg_81" opacity="0.1" transform="translate(-88.65 -57.09)"/>
   <path d="m220.16,602.91c3.57,-1.81 4.66,-6.94 2.57,-11.66c0.11,0.19 0.22,0.39 0.32,0.59c2.47,4.89 1.45,10.38 -2.29,12.27s-8.76,-0.55 -11.23,-5.43c-0.1,-0.21 -0.2,-0.41 -0.29,-0.61c2.57,4.48 7.34,6.65 10.92,4.84z" fill="#63d72a" id="svg_82" opacity="0.1" transform="translate(-88.65 -57.09)"/>
   <path d="m225.47,613.42c3.58,-1.81 4.67,-6.93 2.57,-11.66c0.12,0.2 0.22,0.39 0.33,0.6c2.47,4.88 1.44,10.38 -2.29,12.26s-8.76,-0.54 -11.23,-5.43c-0.11,-0.2 -0.2,-0.4 -0.29,-0.61c2.57,4.49 7.33,6.65 10.91,4.84z" fill="#63d72a" id="svg_83" opacity="0.1" transform="translate(-88.65 -57.09)"/>
   <path d="m229,620.33c3.58,-1.81 4.66,-6.93 2.57,-11.66c0.11,0.2 0.22,0.39 0.32,0.6c2.47,4.88 1.45,10.38 -2.28,12.26s-8.77,-0.54 -11.24,-5.43c-0.1,-0.2 -0.2,-0.4 -0.29,-0.61c2.54,4.51 7.31,6.65 10.92,4.84z" fill="#63d72a" id="svg_84" opacity="0.1" transform="translate(-88.65 -57.09)"/>
   <path d="m132.86,573.53a18.57,18.57 0 0 1 -1,-4.93a2.69,2.69 0 1 1 0.41,-5.35a18.82,18.82 0 0 1 9.89,-12.75a2.69,2.69 0 1 1 4.81,-2.43a2.44,2.44 0 0 1 0.24,0.72a18.92,18.92 0 0 1 16.56,5a18.68,18.68 0 0 1 5,-0.14l2.18,9.92l0.05,-9.57a18.85,18.85 0 1 1 -10.08,36.29a2.76,2.76 0 0 1 -1.13,1.09a2.7,2.7 0 0 1 -3.7,-3.47a18.84,18.84 0 0 1 -2.41,-2a18.87,18.87 0 0 1 -19.8,-10l10.15,-1.71l-11.17,-0.67z" fill="#63d72a" id="svg_85" transform="translate(-88.65 -57.09)"/>
   <g id="svg_86" opacity="0.1">
    <path d="m148.54,578.35c3.75,-5 6.05,-10.8 8.69,-16.42a66.7,66.7 0 0 1 3.56,-6.74l2,-2.31c0.34,0.29 0.67,0.58 1,0.88a18.68,18.68 0 0 1 5,-0.14l2.18,9.92l0.03,-9.54a18.85,18.85 0 1 1 -10.08,36.29a2.76,2.76 0 0 1 -1.13,1.09a2.7,2.7 0 0 1 -3.7,-3.47a18.84,18.84 0 0 1 -2.41,-2a19,19 0 0 1 -11.31,-1.67a26.59,26.59 0 0 0 6.17,-5.89z" fill="#63d72a" id="svg_87" transform="translate(-88.65 -57.09)"/>
   </g>
   <path d="m214.91,557.09a2.68,2.68 0 0 1 1.19,-3.61a2.64,2.64 0 0 1 1.22,-0.29a18.85,18.85 0 0 1 5.89,-10.5a18.71,18.71 0 0 1 -0.55,-5.89l9.89,-1.66l-9.61,-0.61a18.65,18.65 0 0 1 0.72,-2.66a2.64,2.64 0 0 1 -0.89,-1a2.7,2.7 0 0 1 3.32,-3.75a18.63,18.63 0 0 1 6.87,-5.93a18.84,18.84 0 0 1 26.77,21.5a2.69,2.69 0 0 1 0.16,4.87a2.7,2.7 0 0 1 -2.22,0.1a18.74,18.74 0 0 1 -3.57,4.34a18.9,18.9 0 0 1 -0.87,12l-13.23,-3.48l11.83,6.23a18.86,18.86 0 0 1 -32.83,-1.54a19.11,19.11 0 0 1 -1.94,-6.65a2.67,2.67 0 0 1 -2.15,-1.47z" fill="#63d72a" id="svg_88" transform="translate(-88.65 -57.09)"/>
   <path d="m214.91,557.09a2.68,2.68 0 0 1 1.19,-3.61a2.64,2.64 0 0 1 1.22,-0.29a18.85,18.85 0 0 1 5.89,-10.5c-0.08,-0.31 -0.15,-0.63 -0.21,-0.94a7.27,7.27 0 0 1 1,0.86c1.79,2 2.71,4.59 4.47,6.57a12.91,12.91 0 0 0 8.33,3.89a31.54,31.54 0 0 0 9.33,-0.75a27.35,27.35 0 0 1 7.72,-0.85l0.74,0.1l-0.46,0.43a18.9,18.9 0 0 1 -0.87,12l-13.26,-3.48l11.83,6.23a18.86,18.86 0 0 1 -32.83,-1.54a19.11,19.11 0 0 1 -1.94,-6.65a2.67,2.67 0 0 1 -2.15,-1.47z" fill="#63d72a" id="svg_89" opacity="0.1" transform="translate(-88.65 -57.09)"/>
  </g>
  <path d="m346.35,51.91a20.23,20.23 0 0 0 -11.74,1.28a17.32,17.32 0 0 1 -14.1,0a19.76,19.76 0 0 0 -16.58,0.33a10.28,10.28 0 0 1 -4.77,1.19c-6.72,0 -12.31,-6.77 -13.47,-15.7a13.07,13.07 0 0 0 3.36,-3.62c3.94,-6.35 10,-10.43 16.89,-10.43s12.89,4 16.83,10.31a13,13 0 0 0 11.16,6.14l0.18,0c5.3,-0.03 9.93,4.26 12.24,10.5z" fill="#63d72a" id="svg_90" opacity="0.1"/>
  <path d="m455.42,80l-10.86,6.89l6.59,-12a10.74,10.74 0 0 0 -6.57,-2.34l-0.17,0a12.89,12.89 0 0 1 -2.25,-0.17l-3.69,2.34l1.58,-2.87a13.19,13.19 0 0 1 -6.44,-4.85l-6.61,4.13l4.16,-7.57c-3.85,-4.63 -9.05,-7.47 -14.76,-7.47c-6.85,0 -13,4.08 -16.9,10.43a12.62,12.62 0 0 1 -11.17,6l-0.33,0c-7.56,0 -13.7,8.57 -13.7,19.16s6.14,19.15 13.7,19.15a10.28,10.28 0 0 0 4.77,-1.19a19.72,19.72 0 0 1 16.58,-0.32a17.37,17.37 0 0 0 14.1,0a19.75,19.75 0 0 1 16.43,0.32a10.35,10.35 0 0 0 4.72,1.16c7.57,0 13.7,-8.57 13.7,-19.15a24.36,24.36 0 0 0 -2.88,-11.65z" fill="#63d72a" id="svg_91" opacity="0.1" transform="matrix(1 0 0 1 0 0)"/>
  <path d="m120.35,190.45a29,29 0 0 0 -16.77,1.82a24.71,24.71 0 0 1 -20.14,-0.05a28.22,28.22 0 0 0 -23.68,0.47a14.75,14.75 0 0 1 -6.82,1.7c-9.6,0 -17.59,-9.67 -19.25,-22.43a18.41,18.41 0 0 0 4.8,-5.17c5.63,-9.07 14.35,-14.9 24.14,-14.9s18.4,5.76 24,14.73a18.52,18.52 0 0 0 16,8.77l0.25,0c7.58,-0.01 14.2,6.12 17.47,15.06z" fill="#63d72a" id="svg_92" opacity="0.1"/>
  <path d="m143.55,144.4l-15.52,9.84l9.42,-17.13a15.34,15.34 0 0 0 -9.39,-3.35l-0.25,0a18.16,18.16 0 0 1 -3.22,-0.24l-5.24,3.39l2.26,-4.1a18.7,18.7 0 0 1 -9.2,-7l-9.42,6l5.93,-10.9c-5.51,-6.61 -12.93,-10.66 -21.09,-10.66c-9.79,0 -18.51,5.82 -24.14,14.89a18.05,18.05 0 0 1 -16,8.61l-0.53,0c-10.81,0 -19.57,12.25 -19.57,27.37s8.76,27.37 19.57,27.37a14.61,14.61 0 0 0 6.82,-1.71a28.22,28.22 0 0 1 23.68,-0.46a24.71,24.71 0 0 0 20.14,0.05a28.25,28.25 0 0 1 23.48,0.45a14.65,14.65 0 0 0 6.74,1.67c10.81,0 19.57,-12.26 19.57,-27.37a34.76,34.76 0 0 0 -4.04,-16.72z" fill="#63d72a" id="svg_93" opacity="0.1" transform="matrix(1 0 0 1 0 0)"/>
  <path d="m747.97,90.91a20.24,20.24 0 0 1 11.74,1.28a17.29,17.29 0 0 0 14.09,0a19.76,19.76 0 0 1 16.58,0.33a10.31,10.31 0 0 0 4.77,1.19c6.72,0 12.32,-6.77 13.48,-15.7a12.93,12.93 0 0 1 -3.36,-3.62c-3.92,-6.37 -10.05,-10.48 -16.92,-10.48s-12.88,4 -16.82,10.31a13,13 0 0 1 -11.18,6.17l-0.17,0c-5.32,-0.01 -9.96,4.28 -12.21,10.52z" fill="#63d72a" id="svg_94" opacity="0.1" transform="matrix(1 0 0 1 0 0)"/>
  <path d="m711.49,54.91l10.86,6.87l-6.6,-12a10.76,10.76 0 0 1 6.57,-2.34l0.18,0a13,13 0 0 0 2.25,-0.17l3.68,2.34l-1.58,-2.87a13.21,13.21 0 0 0 6.5,-4.83l6.59,4.18l-4.17,-7.57c3.86,-4.63 9,-7.47 14.77,-7.47c6.85,0 13,4.08 16.9,10.43a12.61,12.61 0 0 0 11.17,6l0.36,0c7.57,0 13.7,8.57 13.7,19.16s-6.13,19.15 -13.7,19.15a10.34,10.34 0 0 1 -4.77,-1.19a19.72,19.72 0 0 0 -16.58,-0.32a17.35,17.35 0 0 1 -14.09,0a19.77,19.77 0 0 0 -16.44,0.32a10.32,10.32 0 0 1 -4.72,1.16c-7.56,0 -13.7,-8.57 -13.7,-19.15a24.36,24.36 0 0 1 2.82,-11.7z" fill="#63d72a" id="svg_95" opacity="0.1"/>
  <ellipse cx="615.63" cy="756.88" fill="#63d72a" id="svg_96" opacity="0.1" rx="115" ry="20"/>
  <polygon fill="#d0d2d5" id="svg_97" points="555.44 661.88 377.25 659.59 377.78 655.02 386.39 579.63 542.88 579.63 554.39 655.02 555.27 660.74 555.44 661.88"/>
  <polygon id="svg_98" opacity="0.1" points="555.27 660.74 466.35 660.74 377.25 659.59 377.78 655.02 554.39 655.02 555.27 660.74"/>
  <rect fill="#d0d2d5" height="5.71" id="svg_99" width="236.45" x="347.55" y="656.17"/>
  <path d="m809.59,126.83a14.87,14.87 0 0 0 -14.8,-14.92l-660.32,0a14.87,14.87 0 0 0 -14.8,14.94l0,400.25l689.92,0l0,-400.27z" fill="#3f3d56" id="svg_100"/>
  <path d="m119.67,523.1l0,46.88a14.8,14.8 0 0 0 14.8,14.8l660.32,0a14.8,14.8 0 0 0 14.8,-14.8l0,-46.88l-689.92,0z" fill="#d0d2d5" id="svg_101" transform="matrix(1 0 0 1 0 0)"/>
  <rect fill="#fff" height="359.81" id="svg_102" width="636.23" x="148.23" y="137.01"/>
  <path d="m468.06,566.99a15.4,15.4 0 0 0 12.13,-5.89l0,0a16.06,16.06 0 0 0 1.2,-1.76l-8.47,-1.43l9.15,0.06a15.42,15.42 0 0 0 0.29,-12.21l-12.27,6.36l11.32,-8.32a15.42,15.42 0 1 0 -25.47,17.26l0,0a15.4,15.4 0 0 0 12.12,5.93z" fill="#63d72a" id="svg_103"/>
  <polygon id="svg_104" opacity="0.1" points="483.48 584.77 554.57 656.17 543.66 584.77 483.48 584.77"/>
  <rect fill="#444053" height="21.02" id="svg_105" opacity="0.1" width="636.92" x="147.73" y="137.05"/>
  <rect fill="#63d72a" height="12.79" id="svg_106" opacity="0.3" rx="0.58" transform="matrix(1 0 0 1 0 0)" width="191.9" x="368.87" y="140.71"/>
  <path d="m643.72,205.52l-0.47,0l-0.17,-0.15a3.89,3.89 0 0 0 0.9,-2.49a3.78,3.78 0 1 0 -3.77,3.81a3.9,3.9 0 0 0 2.49,-0.91l0.17,0.15l0,0.47l2.93,2.93l0.87,-0.88l-2.95,-2.93zm-3.51,0a2.64,2.64 0 1 1 2.63,-2.64a2.62,2.62 0 0 1 -2.63,2.64z" fill="#3f3d56" id="svg_107" transform="translate(-88.65 -57.09)"/>
  <circle cx="159.18" cy="147.56" fill="#fa5959" id="svg_108" opacity="0.8" r="3.85"/>
  <circle cx="169.77" cy="147.56" fill="#fed253" id="svg_109" opacity="0.8" r="3.85"/>
  <circle cx="180.37" cy="147.56" fill="#8ccf4d" id="svg_110" opacity="0.8" r="3.85"/>
  <path d="m500.05,291.4c-8.73,-11.6 -21.38,-18.92 -35.46,-18.92s-26.73,7.32 -35.46,18.92a38.39,38.39 0 0 0 8.4,12.65a38.28,38.28 0 0 0 62.52,-12.65z" fill="#63d72a" id="svg_111" transform="matrix(1 0 0 1 0 0)"/>
  <path d="m424.52,298.19a9.17,9.17 0 0 1 -1.76,-1a7.06,7.06 0 0 1 -1.94,-2.51a7.18,7.18 0 1 0 -11.72,1.74a8,8 0 0 0 1.7,1.37a4.94,4.94 0 0 1 1.91,2a14.44,14.44 0 0 0 3.32,4.36a29,29 0 0 0 4.55,3.2a66.31,66.31 0 0 0 -3.74,19.56a27.05,27.05 0 0 0 -7.62,1.23a12.29,12.29 0 0 0 -3.53,1.76a8.48,8.48 0 0 0 -0.87,-0.06a7.19,7.19 0 1 0 6.73,9.72a4.59,4.59 0 0 1 3.71,-3a16.75,16.75 0 0 1 1.85,-0.12a64.4,64.4 0 0 0 8.55,26.67c-4.24,3.29 -6.85,6.88 -7.95,10.86a3,3 0 0 0 -0.57,0.41a6.81,6.81 0 0 0 -0.84,0.78a7.18,7.18 0 1 0 12.05,2.35a4.71,4.71 0 0 1 1.17,-5.08c0.48,-0.45 1,-0.93 1.7,-1.46c8.11,9.47 17.76,15.54 29.81,16.26l0,-64.25c-15.93,-0.87 -29.81,-11.24 -36.51,-24.79zm99.83,31.72a7.93,7.93 0 0 0 -0.87,0.06a13.56,13.56 0 0 0 -3.53,-1.76a26.86,26.86 0 0 0 -7.62,-1.23a67.76,67.76 0 0 0 -3.74,-19.55a29,29 0 0 0 4.55,-3.2a15.58,15.58 0 0 0 3.44,-4.57a4.22,4.22 0 0 1 1.77,-1.75a0,0 0 0 0 0,0a7.18,7.18 0 1 0 -10,-3.17a6.82,6.82 0 0 1 -1.94,2.51a18.85,18.85 0 0 1 -1.76,1.29c-6.7,13.54 -20.57,23.62 -36.48,24.49l0,64.31c12,-0.72 21.71,-6.82 29.81,-16.26c0.63,0.5 1.16,0.95 1.61,1.37a4.86,4.86 0 0 1 1.26,5.23a7.18,7.18 0 1 0 12.08,-2.33a6.81,6.81 0 0 0 -0.84,-0.78c-0.33,-0.26 -0.57,-0.41 -0.57,-0.41c-1.1,-4 -3.7,-7.57 -8,-10.86a64.4,64.4 0 0 0 8.55,-26.67a15.9,15.9 0 0 1 1.77,0.12a4.8,4.8 0 0 1 3.85,3a7.18,7.18 0 0 0 13.85,-2.18a7.29,7.29 0 0 0 -7.19,-7.66z" fill="#63d72a" id="svg_112" transform="matrix(1 0 0 1 0 0)"/>
  <path d="m769.65,802.31a9.56,9.56 0 0 0 -2.17,-2.41c-4.37,-4.13 -6.4,-10.19 -7.48,-16.13s-1.39,-12 -3.12,-17.81a58.74,58.74 0 0 0 -3.52,-8.67c-1,-2.14 -2.26,-6.33 -4.09,-7.83a2.7,2.7 0 0 0 -1.26,-0.61a14.85,14.85 0 0 0 -3.62,-4.82c-2.86,-2.59 -6.35,-4.65 -8.26,-8a18,18 0 0 0 -1.93,-3.29c-1.29,-1.42 -3.33,-2 -4.52,-3.5c-1.55,-1.94 -1.2,-4.72 -1,-7.19s0,-5.43 -2.14,-6.73c-1.28,-0.79 -2.93,-0.71 -4.26,-1.41c-2,-1 -2.79,-3.52 -2.75,-5.77s0.74,-4.44 0.92,-6.69c0.56,-7.16 -4.16,-14.28 -2.34,-21.22c0.69,-2.63 2.27,-4.91 3.44,-7.36a15.37,15.37 0 0 0 1,-2.54a35.73,35.73 0 0 0 9.74,2.35c-5.51,-12.36 -4.11,-26.72 -6.68,-40l0.33,-0.45a20.84,20.84 0 0 0 4.22,-11.86c0,-4.94 -2.31,-9.56 -3.35,-14.4c-0.89,-4.11 -0.85,-8.41 -2,-12.45a37.65,37.65 0 0 0 -3.16,-7.22q-1.87,-3.47 -3.93,-6.83q-1.92,-6.36 -3.85,-12.72c-1.8,-5.95 -3.65,-12 -7.15,-17.14c-1.28,-1.88 -1.67,-5.7 -3.64,-6.84a8.81,8.81 0 0 0 -5.2,-0.91c-2.78,-1.56 -5.22,-3.81 -5.57,-6.89a6.68,6.68 0 0 1 0.2,-2l0.34,0c4.4,-0.4 6.63,-4.28 8.92,-7.68c3.7,-5.5 2.29,-12.94 0,-19.2a13,13 0 0 0 -3,-5.29c-3.21,-3 -8.29,-2.34 -12.43,-3.79c-1.39,-0.48 -2.69,-1.21 -4.11,-1.55c-2.75,-0.64 -5.63,0.26 -8.15,1.53s-4.87,2.91 -7.51,3.91s-5.9,1.79 -6.55,4.5a5,5 0 0 0 0.22,2.73a10.18,10.18 0 0 0 3.09,4.46a17.81,17.81 0 0 0 10.87,24.82c0.76,1.22 1.47,2.46 2.12,3.73c1.16,2.24 2.14,4.88 1.74,7.28a22.45,22.45 0 0 0 -2,2.45c-2.87,4 -4.5,8.69 -6,13.37a141.65,141.65 0 0 0 -4.83,18.27c-2.44,5.19 -5.42,10.15 -7.19,15.6a35.21,35.21 0 0 1 -9.38,-1.26l-8.44,-1.91c-2.94,-0.67 -6,-1.39 -8.3,-3.33c-1.22,-1 -2.17,-2.33 -3.41,-3.32s-3.73,-2.15 -5.09,-1.33a4,4 0 0 0 -0.69,0.53c-1.24,-2.51 -2.42,-5 -3.86,-7.43c-2.07,-3.4 -5.15,-6.51 -9.05,-7.16a9.21,9.21 0 0 0 -6.79,1.58c-2.28,1.62 -3.71,5 -2,7.28a13.29,13.29 0 0 0 1.39,1.42a29.2,29.2 0 0 1 3.09,4.29a21.91,21.91 0 0 0 13.49,8.76l-0.35,1c-0.71,2.08 -2.22,4.59 -1.84,6.75l37.54,12.85a23.13,23.13 0 0 0 7.56,1.67a12.21,12.21 0 0 0 3,-0.4l0,1.92l0,0.08c0.1,13.19 -2,26.29 -2.39,39.47c-0.07,2.41 0,5 1.52,6.88c1.7,2.06 4.72,2.47 7.35,2q0.95,-0.16 1.86,-0.42a69.33,69.33 0 0 1 1.92,10.11l2.48,17.86a27.14,27.14 0 0 1 0.39,5.54c-0.29,4.19 -2.5,7.94 -4.1,11.81s-2.55,8.5 -0.45,12.12c0.66,1.12 1.57,2.07 2.16,3.23a13.14,13.14 0 0 1 1,5.68q0.23,8.08 0.44,16.18a1.83,1.83 0 0 0 -1.26,0.25c-2.08,1.62 -1.85,9.33 -2,11.72c-0.16,4 0,8.08 -0.22,12.12a72.22,72.22 0 0 1 -2.61,16.09a10.29,10.29 0 0 1 -2.29,4.61a9.74,9.74 0 0 1 -4.07,2.11a46.49,46.49 0 0 1 -15.41,2.1c-2.11,-0.07 -4.31,-0.27 -6.27,0.53s-3.54,3 -2.83,5c0.61,1.68 2.46,2.48 4.13,3.11a65.53,65.53 0 0 1 11,5.06a29.74,29.74 0 0 0 4.25,2.41a21.91,21.91 0 0 0 4.38,1.08l17.73,3.06c3.63,0.62 8,1 10.31,-2c1.25,-1.62 1.43,-3.82 1.37,-5.88c-0.1,-4 -0.9,-8.07 -0.38,-12.07a37.14,37.14 0 0 1 1.86,-6.93q2.65,-7.87 5.32,-15.73c1.78,-5.26 3.58,-10.57 4.27,-16.09c0.25,-2 0.23,-4.28 -1.3,-5.53a3.54,3.54 0 0 0 -1.32,-0.68c-0.06,-4.82 -0.69,-9.65 -0.42,-14.47c0.07,-1.2 0.19,-2.4 0.29,-3.61a17.61,17.61 0 0 1 2.47,2.92c1.71,2.68 2.34,6.22 4.95,8c2.22,1.52 5.51,1.44 7.07,3.64a10.26,10.26 0 0 1 1.12,2.71a19.32,19.32 0 0 0 4,6.35a32,32 0 0 0 2.47,6.34q2.21,4.67 4.4,9.31a108.59,108.59 0 0 0 5,9.77a27.55,27.55 0 0 1 3.35,6.46c1.41,4.94 -0.89,10.36 -4.53,14s-8.44,5.73 -13.17,7.68a3.71,3.71 0 0 0 -1.34,0.8a2.59,2.59 0 0 0 -0.61,1.74c0,2.31 1.9,4.29 4.08,5a15.26,15.26 0 0 0 6.83,0.25c12.78,-1.55 25.52,-4.67 36.82,-10.88a13,13 0 0 0 4.39,-3.39a5.13,5.13 0 0 0 0.73,-5.21z" fill="url(#af83dc26-9572-4816-b7a1-1af4f72ff554-43)" id="svg_113" transform="translate(-88.65 -57.09)"/>
  <path d="m715.64,578.06q3.2,4.91 6,10.06a37,37 0 0 1 3.17,7.17c1.16,4 1.13,8.27 2,12.35c1,4.8 3.34,9.38 3.34,14.3a20.56,20.56 0 0 1 -4.22,11.76a55.82,55.82 0 0 1 -8.82,9.1a187.62,187.62 0 0 1 -12.48,-61.21c-0.1,-2.9 -0.12,-5.89 0.94,-8.6c0.65,-1.7 3.77,-6.36 5.78,-4.53c0.73,0.67 0.92,3.69 1.37,4.7a36.13,36.13 0 0 0 2.92,4.9z" fill="#2f2e41" id="svg_114" transform="translate(-88.65 -57.09)"/>
  <path d="m715.64,578.06q3.2,4.91 6,10.06a37,37 0 0 1 3.17,7.17c1.16,4 1.13,8.27 2,12.35c1,4.8 3.34,9.38 3.34,14.3a20.56,20.56 0 0 1 -4.22,11.76a55.82,55.82 0 0 1 -8.82,9.1a187.62,187.62 0 0 1 -12.48,-61.21c-0.1,-2.9 -0.12,-5.89 0.94,-8.6c0.65,-1.7 3.77,-6.36 5.78,-4.53c0.73,0.67 0.92,3.69 1.37,4.7a36.13,36.13 0 0 0 2.92,4.9z" id="svg_115" opacity="0.1" transform="translate(-88.65 -57.09)"/>
  <path d="m452,441.63c-7.91,7.9 -8.86,11.38 -13.61,12.95s-21.84,10.42 -16.47,20.23l14.44,9.54l0.42,0.28l2.21,6.64l-21.84,38.88s-36,-16.46 -39.53,7.89s-1.29,31 -2.24,44s0.31,16.76 -2.86,16.76s-4.42,-8.54 -4.42,-8.54s-0.2,-0.39 -0.55,-1.12c-4.71,-9.79 -36.68,-81.66 14.53,-131.06c0,0 23.72,-1.56 29.43,-28.76c3.94,-18.8 17.72,-17.18 26.88,-13.35a30.38,30.38 0 0 1 8.22,4.83a40.48,40.48 0 0 1 5.89,7c2.61,4.12 4.03,9.29 -0.5,13.83z" fill="#d0d2d5" id="svg_116" transform="translate(-88.65 -57.09)"/>
  <path d="m436.78,484.63l2.21,6.64l-21.84,38.88s-36,-16.46 -39.53,7.89s-1.29,31 -2.24,44s0.31,16.76 -2.86,16.76s-4.42,-8.54 -4.42,-8.54s-0.2,-0.39 -0.55,-1.12c-1.59,-12.16 -9.65,-83.29 19.57,-79.51c0,0 23.71,11.08 27.5,6.66c3,-3.5 16.32,-23.63 21.74,-31.89l0.42,0.23z" id="svg_117" opacity="0.1" transform="translate(-88.65 -57.09)"/>
  <path d="m452.5,427.74l-14.44,16.41s-16.77,22.44 -20.25,21.49a16.23,16.23 0 0 0 -3.17,-0.37a6.16,6.16 0 0 1 -4,-10.38c5.72,-6 16.26,-17.39 16.95,-19.92s7.4,-13.62 10.76,-19.05a30.38,30.38 0 0 1 8.22,4.83a40.48,40.48 0 0 1 5.93,6.99z" id="svg_118" opacity="0.1" transform="translate(-88.65 -57.09)"/>
  <path d="m861.06,663.83c-2.45,4.9 -15,23.28 -20.49,31.31l-2.57,3.78s-1,6.64 -17.39,-1.59s-401.48,-170.72 -401.48,-170.72l-2.61,-7.84l19,-28.45l422.07,163.07s6.64,4.11 3.47,10.44z" fill="#454b69" id="svg_119" transform="translate(-88.65 -57.09)"/>
  <path d="m840.57,695.14l-2.57,3.78s-1,6.64 -17.39,-1.59s-401.48,-170.72 -401.48,-170.72l-2.61,-7.84l424.05,176.37z" id="svg_120" opacity="0.1" transform="translate(-88.65 -57.09)"/>
  <path d="m608.29,589c-3.91,-0.64 -8.25,-0.33 -11.29,2.21a9.29,9.29 0 0 0 -3.24,6.16c-0.26,2.77 1.35,6.06 4.13,6.27a13.17,13.17 0 0 0 2,-0.13a29.89,29.89 0 0 1 5.24,0.44a21.39,21.39 0 0 0 18.23,-7.36c2.39,-3 -0.76,-4.3 -3.58,-4.9c-3.86,-0.82 -7.63,-2.07 -11.49,-2.69z" fill="#fbbebe" id="svg_121" transform="translate(-88.65 -57.09)"/>
  <path d="m675.17,679.31l2.48,17.62a26.84,26.84 0 0 1 0.38,5.51c-0.29,4.15 -2.5,7.87 -4.09,11.71s-2.56,8.44 -0.45,12c0.65,1.11 1.56,2.06 2.15,3.21a12.92,12.92 0 0 1 1,5.63l0.68,25a157.33,157.33 0 0 0 23.18,-0.13a1.29,1.29 0 0 0 0.84,-0.26a1.36,1.36 0 0 0 0.29,-0.91c0.34,-5.85 -0.68,-11.71 -0.35,-17.56c0.12,-2.14 0.42,-4.27 0.46,-6.42c0.12,-8.71 -4.18,-17.24 -2.88,-25.85a57,57 0 0 1 1.6,-6.43c4.11,-15 3.24,-30.76 2.33,-46.25a1.09,1.09 0 0 0 -0.2,-0.7a1.06,1.06 0 0 0 -0.54,-0.29a28.45,28.45 0 0 0 -25.78,4.9c-1.09,0.88 -3.84,1.73 -4.56,2.78c-1,1.46 0.31,2.92 0.89,4.47a56.89,56.89 0 0 1 2.57,11.97z" fill="#3f3d56" id="svg_122" transform="translate(-88.65 -57.09)"/>
  <path d="m675.17,679.31l2.48,17.62a26.84,26.84 0 0 1 0.38,5.51c-0.29,4.15 -2.5,7.87 -4.09,11.71s-2.56,8.44 -0.45,12c0.65,1.11 1.56,2.06 2.15,3.21a12.92,12.92 0 0 1 1,5.63l0.68,25a157.33,157.33 0 0 0 23.18,-0.13a1.29,1.29 0 0 0 0.84,-0.26a1.36,1.36 0 0 0 0.29,-0.91c0.34,-5.85 -0.68,-11.71 -0.35,-17.56c0.12,-2.14 0.42,-4.27 0.46,-6.42c0.12,-8.71 -4.18,-17.24 -2.88,-25.85a57,57 0 0 1 1.6,-6.43c4.11,-15 3.24,-30.76 2.33,-46.25a1.09,1.09 0 0 0 -0.2,-0.7a1.06,1.06 0 0 0 -0.54,-0.29a28.45,28.45 0 0 0 -25.78,4.9c-1.09,0.88 -3.84,1.73 -4.56,2.78c-1,1.46 0.31,2.92 0.89,4.47a56.89,56.89 0 0 1 2.57,11.97z" id="svg_123" opacity="0.1" transform="translate(-88.65 -57.09)"/>
  <path d="m721.54,674c-1.17,2.43 -2.74,4.69 -3.44,7.3c-1.82,6.89 2.89,14 2.33,21.06c-0.18,2.23 -0.87,4.4 -0.92,6.63s0.77,4.71 2.75,5.74c1.33,0.68 3,0.61 4.25,1.39c2.11,1.29 2.35,4.22 2.14,6.68s-0.56,5.21 1,7.13c1.19,1.49 3.23,2.07 4.51,3.48a17.17,17.17 0 0 1 1.93,3.26c1.91,3.34 5.4,5.38 8.26,8s5.28,6.46 4,10.09c-0.94,2.66 -3.58,4.3 -6.12,5.55a64.93,64.93 0 0 1 -14.57,5.15a3.52,3.52 0 0 1 -1.67,0.09a3.57,3.57 0 0 1 -1.46,-1c-2.95,-2.89 -6,-5.92 -7.36,-9.81a10.07,10.07 0 0 0 -1.12,-2.68c-1.56,-2.19 -4.85,-2.11 -7.07,-3.62c-2.6,-1.77 -3.23,-5.28 -4.93,-7.93s-4.19,-4.23 -6,-6.56c-3.06,-3.88 -3.81,-9.06 -6,-13.49c-0.93,-1.88 -2.12,-3.64 -2.86,-5.6a30.58,30.58 0 0 1 -1.37,-7.24c-1.41,-11.68 -5,-23.44 -2.74,-35c0.5,-2.54 1.27,-5 1.59,-7.62c0.55,-4.53 -0.32,-9.17 0.35,-13.69a3.77,3.77 0 0 1 1.51,-2.91a4,4 0 0 1 1.72,-0.35a117.28,117.28 0 0 1 17.78,0.4c3,0.29 6.36,0.9 8.16,3.35c1.53,2.1 1.45,4.91 1.94,7.46c0.61,3.14 2.2,4.85 3.87,7.31s0.77,4.89 -0.46,7.43z" fill="#3f3d56" id="svg_124" transform="translate(-88.65 -57.09)"/>
  <path d="m698.47,755.26c1.58,0 3.33,-0.1 4.55,0.9c1.52,1.25 1.54,3.54 1.3,5.49c-0.7,5.48 -2.49,10.75 -4.28,16l-5.32,15.61a36.65,36.65 0 0 0 -1.86,6.88c-0.52,4 0.28,8 0.38,12c0,2 -0.13,4.22 -1.38,5.83c-2.26,2.91 -6.67,2.57 -10.3,2l-17.71,-3a21.07,21.07 0 0 1 -4.38,-1.07a30.61,30.61 0 0 1 -4.25,-2.39a65.42,65.42 0 0 0 -11,-5c-1.66,-0.62 -3.52,-1.41 -4.12,-3.08c-0.71,-2 0.87,-4.2 2.83,-5s4.15,-0.6 6.27,-0.54a47,47 0 0 0 15.4,-2.08a9.74,9.74 0 0 0 4.06,-2.1a10,10 0 0 0 2.34,-4.71a70.17,70.17 0 0 0 2.68,-16c0.21,-4 0.07,-8 0.23,-12c0.1,-2.37 -0.13,-10 1.95,-11.63c1.59,-1.22 8.13,2.15 10.28,2.64a50,50 0 0 0 12.33,1.25z" fill="#2f2e41" id="svg_125" transform="translate(-88.65 -57.09)"/>
  <path d="m756.81,766.38c1.73,5.73 2,11.79 3.12,17.68s3.1,11.9 7.47,16a9.87,9.87 0 0 1 2.17,2.4a5.06,5.06 0 0 1 -0.75,5.23a13.13,13.13 0 0 1 -4.39,3.37c-11.29,6.16 -24,9.27 -36.81,10.81a15.51,15.51 0 0 1 -6.82,-0.25c-2.18,-0.74 -4.11,-2.7 -4.07,-5a2.55,2.55 0 0 1 0.6,-1.73a3.73,3.73 0 0 1 1.35,-0.79c4.72,-1.94 9.51,-4.05 13.16,-7.63s5.94,-9 4.53,-13.86a27.42,27.42 0 0 0 -3.37,-6.41a108.35,108.35 0 0 1 -5,-9.69l-4.4,-9.23c-1.29,-2.7 -2.59,-5.48 -2.81,-8.46a40.6,40.6 0 0 0 16.22,-2.6a25.51,25.51 0 0 0 6.67,-4c1.7,-1.42 3.25,-4.07 5.54,-2.22c1.84,1.48 3,5.65 4.08,7.76a57,57 0 0 1 3.51,8.62z" fill="#2f2e41" id="svg_126" transform="translate(-88.65 -57.09)"/>
  <path d="m692.33,537.19c0.44,3.84 4.16,6.37 7.71,7.89l-22.47,7.17c1.45,-2.78 0.28,-6.18 -1.16,-9a50.93,50.93 0 0 0 -4,-6.41c-0.22,-0.31 -0.47,-0.7 -0.31,-1.06a1.12,1.12 0 0 1 0.63,-0.49c4.62,-2.06 9.38,-4.19 14.43,-4.94c1.46,-0.21 4.22,-0.79 5.31,0.69s-0.35,4.38 -0.14,6.15z" fill="#fbbebe" id="svg_127" transform="translate(-88.65 -57.09)"/>
  <path d="m692.33,537.19c0.44,3.84 4.16,6.37 7.71,7.89l-22.47,7.17c1.45,-2.78 0.28,-6.18 -1.16,-9a50.93,50.93 0 0 0 -4,-6.41c-0.22,-0.31 -0.47,-0.7 -0.31,-1.06a1.12,1.12 0 0 1 0.63,-0.49c4.62,-2.06 9.38,-4.19 14.43,-4.94c1.46,-0.21 4.22,-0.79 5.31,0.69s-0.35,4.38 -0.14,6.15z" id="svg_128" opacity="0.1" transform="translate(-88.65 -57.09)"/>
  <circle cx="590.62" cy="465.59" fill="#fbbebe" id="svg_129" r="17.62"/>
  <path d="m664,667.68c1.71,2.05 4.72,2.45 7.35,2c6.15,-1 11.18,-5.53 17.2,-7.16c7.38,-2 15.19,0.57 22.16,3.72s13.9,7 21.52,7.54c-6.89,-15.36 -2.95,-33.84 -9.54,-49.33c-1.61,-3.79 -3.86,-7.44 -4.22,-11.54c-0.45,-5.09 2.09,-10 2.48,-15.06c0.36,-4.51 -1,-9 -2.3,-13.3q-2.41,-7.92 -4.82,-15.84c-1.8,-5.91 -3.65,-11.92 -7.14,-17c-1.29,-1.87 -1.68,-5.66 -3.64,-6.79c-4.28,-2.47 -10.77,0.64 -15.41,0.81s-8.87,3.47 -11.58,7.2c-2.87,3.94 -4.5,8.63 -6,13.27a126.15,126.15 0 0 0 -5.33,21.23c-0.15,1.08 -0.28,2.16 -0.38,3.25c-1,10.27 0.46,20.6 0.54,30.92l0,0.07c0.1,13.09 -2,26.1 -2.39,39.18c-0.04,2.39 0.02,5 1.5,6.83z" fill="#2f2e41" id="svg_130" transform="translate(-88.65 -57.09)"/>
  <path d="m664.92,621.61c3.45,-0.87 6.57,-3.1 9.25,-5.54a38.67,38.67 0 0 0 6.14,-7a49.86,49.86 0 0 0 5.29,-11.07a129.36,129.36 0 0 0 7,-32.27c0.26,-3 0.34,-6.22 -1.45,-8.6a7.24,7.24 0 0 0 -8.75,-2.12c-2.36,1.15 -3.89,3.48 -5.31,5.71c-2.81,4.42 -5.64,8.9 -7.45,13.82c-0.8,2.18 -1.39,4.42 -2.17,6.61a61,61 0 0 1 -2.74,6.33c-0.15,1.08 -0.28,2.16 -0.38,3.25c-0.93,10.27 0.49,20.56 0.57,30.88z" id="svg_131" opacity="0.1" transform="translate(-88.65 -57.09)"/>
  <path d="m691.1,555.2c1.79,2.38 1.71,5.63 1.46,8.59a129.18,129.18 0 0 1 -7,32.27a49.43,49.43 0 0 1 -5.29,11.16a39.07,39.07 0 0 1 -6.14,7c-3.4,3.1 -7.54,5.87 -12.15,5.91a23.16,23.16 0 0 1 -7.56,-1.65l-37.55,-12.78c-0.38,-2.14 1.13,-4.64 1.84,-6.7l2,-5.93c0.57,-1.64 1.23,-3.41 2.72,-4.3s3.85,0.33 5.09,1.32s2.18,2.29 3.4,3.3c2.31,1.92 5.36,2.64 8.3,3.3l8.43,1.89a35.2,35.2 0 0 0 9.38,1.25c2.35,-7.18 6.82,-13.5 9.35,-20.62c0.78,-2.18 1.37,-4.43 2.18,-6.61c1.8,-4.92 4.64,-9.39 7.45,-13.82c1.41,-2.22 2.94,-4.55 5.31,-5.71a7.23,7.23 0 0 1 8.78,2.13z" fill="#2f2e41" id="svg_132" transform="translate(-88.65 -57.09)"/>
  <path d="m684.89,526.66a8.89,8.89 0 0 0 -1.06,-3.3a2.77,2.77 0 0 0 -3,-1.32c-1.76,0.55 -2.35,3.27 -4.19,3.36c-1.24,0.06 -2.13,-1.2 -2.52,-2.38s-0.6,-2.53 -1.53,-3.36a5.7,5.7 0 0 0 -2.18,-1c-4.27,-1.35 -8.68,-3.84 -10.1,-8.09a4.84,4.84 0 0 1 -0.23,-2.71c0.65,-2.69 4,-3.5 6.55,-4.47s5,-2.63 7.5,-3.89s5.4,-2.15 8.15,-1.51a42.47,42.47 0 0 1 4.11,1.53c4.14,1.44 9.21,0.77 12.42,3.76a12.83,12.83 0 0 1 3,5.24c2.24,6.22 3.66,13.6 -0.05,19.06c-2.29,3.37 -4.51,7.22 -8.91,7.63c-5.12,0.43 -7.15,-4.21 -7.96,-8.55z" fill="#2f2e41" id="svg_133" transform="translate(-88.65 -57.09)"/>
  <g id="svg_134" opacity="0.1">
   <path d="m677.07,520.9c-0.39,-1.18 -0.6,-2.53 -1.52,-3.36a5.7,5.7 0 0 0 -2.18,-1c-4.28,-1.35 -8.68,-3.84 -10.11,-8.09a4.93,4.93 0 0 1 -0.22,-2.71a3.39,3.39 0 0 1 0.53,-1.19c-1.63,0.71 -3.05,1.65 -3.45,3.31a4.84,4.84 0 0 0 0.23,2.71c1.42,4.25 5.83,6.74 10.1,8.09a5.7,5.7 0 0 1 2.18,1c0.93,0.83 1.13,2.17 1.53,3.36s1.28,2.44 2.52,2.38s1.84,-1.19 2.63,-2.14c-1.09,-0.14 -1.88,-1.26 -2.24,-2.36z" id="svg_135" transform="translate(-88.65 -57.09)"/>
   <path d="m695.79,533.06c-5.14,0.47 -7.17,-4.21 -8,-8.52a8.7,8.7 0 0 0 -1,-3.3a2.78,2.78 0 0 0 -3,-1.32a5.32,5.32 0 0 0 -2.21,2a3,3 0 0 1 2.26,1.4a8.89,8.89 0 0 1 1.06,3.3c0.81,4.31 2.84,9 8,8.52a8.25,8.25 0 0 0 5.28,-2.74a7.46,7.46 0 0 1 -2.39,0.66z" id="svg_136" transform="translate(-88.65 -57.09)"/>
  </g>
  <ellipse cx="813.11" cy="655.78" fill="#63d72a" id="svg_137" rx="32.29" ry="6.21" transform="matrix(1 0 0 1 0 0)"/>
  <ellipse cx="812.57" cy="653.14" fill="#3f3d56" id="svg_138" rx="3.76" ry="4.92" transform="matrix(1 0 0 1 0 0)"/>
  <ellipse cx="812.57" cy="647.12" fill="#3f3d56" id="svg_139" rx="3.76" ry="4.92"/>
  <ellipse cx="812.57" cy="641.11" fill="#3f3d56" id="svg_140" rx="3.76" ry="4.92"/>
  <ellipse cx="812.57" cy="635.09" fill="#3f3d56" id="svg_141" rx="3.76" ry="4.92"/>
  <ellipse cx="812.57" cy="629.07" fill="#3f3d56" id="svg_142" rx="3.76" ry="4.92"/>
  <ellipse cx="812.57" cy="623.06" fill="#3f3d56" id="svg_143" rx="3.76" ry="4.92"/>
  <ellipse cx="812.57" cy="617.04" fill="#3f3d56" id="svg_144" rx="3.76" ry="4.92"/>
  <path d="m826.64,575.91a18.19,18.19 0 0 0 1.4,-2.06l-9.88,-1.62l10.69,0.07a18.11,18.11 0 0 0 0.34,-14.27l-14.34,7.44l13.22,-9.72a18,18 0 1 0 -29.72,20.16a17.92,17.92 0 0 0 -2.06,3.28l12.83,6.67l-13.68,-4.59a18,18 0 0 0 2.91,16.88a18,18 0 1 0 28.31,0a18,18 0 0 0 0,-22.27l-0.02,0.03z" fill="#63d72a" id="svg_145" transform="matrix(1 0 0 1 0 0)"/>
  <path d="m883.12,644.1a17.91,17.91 0 0 0 3.88,11.14a18,18 0 1 0 28.31,0c2.39,-3.07 -32.19,-13.16 -32.19,-11.14z" id="svg_146" opacity="0.1" transform="translate(-88.65 -57.09)"/>
  <ellipse cx="148.42" cy="776.87" fill="#63d72a" id="svg_147" rx="46.49" ry="8.94"/>
  <ellipse cx="147.64" cy="773.07" fill="#3f3d56" id="svg_148" rx="5.41" ry="7.09"/>
  <ellipse cx="147.64" cy="764.41" fill="#3f3d56" id="svg_149" rx="5.41" ry="7.09"/>
  <ellipse cx="147.64" cy="755.75" fill="#3f3d56" id="svg_150" rx="5.41" ry="7.09"/>
  <ellipse cx="147.64" cy="747.09" fill="#3f3d56" id="svg_151" rx="5.41" ry="7.09"/>
  <ellipse cx="147.64" cy="738.43" fill="#3f3d56" id="svg_152" rx="5.41" ry="7.09"/>
  <ellipse cx="147.64" cy="729.76" fill="#3f3d56" id="svg_153" rx="5.41" ry="7.09"/>
  <ellipse cx="147.64" cy="721.1" fill="#3f3d56" id="svg_154" rx="5.41" ry="7.09"/>
  <path d="m167.9,661.84a27.23,27.23 0 0 0 2,-3l-14.22,-2.34l15.38,0.12a26,26 0 0 0 0.49,-20.55l-20.62,10.74l19,-14a25.93,25.93 0 1 0 -42.83,29a25.83,25.83 0 0 0 -3,4.72l18.47,9.6l-19.69,-6.61a25.93,25.93 0 0 0 4.26,24.39a25.93,25.93 0 1 0 40.76,0a25.92,25.92 0 0 0 0,-32.06l0,-0.01z" fill="#63d72a" id="svg_155" transform="matrix(1 0 0 1 0 0)"/>
  <path d="m210.24,735a25.85,25.85 0 0 0 5.55,16a25.93,25.93 0 1 0 40.76,0c3.45,-4.42 -46.31,-18.95 -46.31,-16z" id="svg_156" opacity="0.1" transform="translate(-88.65 -57.09)"/>
 </g>
</svg>